<?xml version="1.0" encoding="utf-8"?>
<!-- Generator: Adobe Illustrator 25.0.0, SVG Export Plug-In . SVG Version: 6.00 Build 0)  -->
<svg version="1.1" id="Layer_1" xmlns="http://www.w3.org/2000/svg" xmlns:xlink="http://www.w3.org/1999/xlink" x="0px" y="0px"
	 viewBox="0 0 24 24" style="enable-background:new 0 0 24 24;" xml:space="preserve">
<style type="text/css">
	.st0{fill:#225CFF;}
</style>
<path class="st0" d="M23.5,7C23.8,7,24,7.2,24,7.5V8c0,0.8-0.9,1-1.6,1l-1.1-2H23.5z M22.1,10.5c0.6,1.2,0.9,2.3,0.9,3.7
	s-0.4,2.5-1,4V20c0,0.6-0.4,1-1,1h-1.5c-0.6,0-1-0.4-1-1v-1h-13v1c0,0.6-0.4,1-1,1H3c-0.6,0-1-0.4-1-1v-1.8c-0.6-1.4-1-2.6-1-4
	s0.3-2.5,0.9-3.7c0.9-1.5,1.9-3.4,3-5.2c0.8-1.4,1.3-1.7,2.3-1.9C8.7,3.1,10.1,3,12,3s3.3,0.1,4.9,0.4c1,0.2,1.5,0.5,2.3,1.9
	C20.2,7.1,21.2,9,22.1,10.5z M6,13.5C6,12.7,5.3,12,4.5,12S3,12.7,3,13.5S3.7,15,4.5,15S6,14.3,6,13.5z M16,14.5
	c0-0.3-0.2-0.5-0.5-0.5h-7C8.2,14,8,14.2,8,14.5S8.2,15,8.5,15h7C15.8,15,16,14.8,16,14.5z M18.9,9c0,0-0.7-1.8-1.6-3.1
	c-0.2-0.3-0.5-0.5-0.9-0.6C14.9,5,13.6,4.9,12,4.9S9.1,5,7.6,5.3c-0.4,0-0.7,0.2-0.9,0.5C5.8,7.1,5.1,9,5.1,9
	C6.7,9.3,9.4,9.5,12,9.5S17.3,9.3,18.9,9z M21,13.5c0-0.8-0.7-1.5-1.5-1.5S18,12.7,18,13.5s0.7,1.5,1.5,1.5S21,14.3,21,13.5z M2.7,7
	H0.5C0.2,7,0,7.2,0,7.5V8c0,0.8,0.9,1,1.6,1L2.7,7z"/>
</svg>
