<?xml version="1.0" encoding="utf-8"?>
<!-- Generator: Adobe Illustrator 25.0.0, SVG Export Plug-In . SVG Version: 6.00 Build 0)  -->
<svg version="1.1" id="Layer_1" xmlns="http://www.w3.org/2000/svg" xmlns:xlink="http://www.w3.org/1999/xlink" x="0px" y="0px"
	 viewBox="0 0 801.2 595.9" style="enable-background:new 0 0 801.2 595.9;" xml:space="preserve">
<style type="text/css">
	.st0{fill:none;stroke:#FFFFFF;stroke-width:10;stroke-linecap:round;stroke-miterlimit:10;}
</style>
<g id="Layer_2_1_">
	<g id="Layer_1-2">
		<path class="st0" d="M339.7,307c24.3-24.1,32-30.6,39.9-44.8c8.5-15.5-5.6-36.5-21.5-44.2l-143.7-69.6
			c-10.9-5.3-25.4-17.9-20.4-28.9s32.1-11.6,44.1-10.2c236.8,26.4,242.8,66.6,368.8-47.5C622.8,47.3,684.7-5.1,710,22.9
			c20.6,22.8-31,80.9-51,100.8c-113.3,113-85.5,96-88.8,162.2c-4,80.7,23.7,221.6-2.2,240.2c-23.8,3.5-25.6-25.8-41.8-61.2
			c-13.9-30.4-22.7-82.6-33.4-111.3c-10.7-28.7-32.7-38.2-57.7-20.5c-41.3,29.3-82.2,32.6-115.2,31.9c-37.8-0.8-95.7,1-128.5-1.7
			c-20.3-1.7-16.4,18.7,0.6,26.3c38.5,17.2,55.4,35.4,69.7,50c31.6,32.2,30.7,53,42.5,70.8c7.6,11.5,19.4,0.6,21.8-8.5
			c3-11.5,5.1-22.6,4.5-38.3c-0.4-10.9-1-18.3,0.8-36.3"/>
		<path class="st0" d="M339,306.2c-22.3-53.3-86.6-84.5-142.6-66.7c-31.5,9.7-56.2,35-68.3,66c-15.5,40,0.9,90.4,0.9,90.4l0,0
			c-42.3-9.8-90.7,12.1-111.4,51.3C-3.1,487.5,5,539.4,38.1,569.5"/>
		<path class="st0" d="M732.2,592.4c31.2-12,49.8-46.5,49.8-78.6c-0.6-10.7-1.4-21.3-8.7-34.4c-21.8-39.2-77.2-54-114.2-28.7
			c10.2-20.1,9.3-44-2.6-63.2c-20-32.9-68.9-20.7-68.9-20.7"/>
	</g>
</g>
</svg>
