<svg id="Layer_1" data-name="Layer 1" xmlns="http://www.w3.org/2000/svg" viewBox="0 0 180.2 399.7"><defs><style>.cls-1{fill:#1a1c20;}.cls-2{fill:#f4f4f4;}</style></defs><g id="Group_78" data-name="Group 78"><path id="Subtraction_3-3" data-name="Subtraction 3-3" class="cls-1" d="M409.9,685.25h0L520.26,500.41A107.65,107.65,0,0,1,409.9,685.25Z" transform="translate(-409.9 -300.15)"/><path id="Subtraction_1" data-name="Subtraction 1" class="cls-2" d="M411.69,656.78h0l88-146.48a98.61,98.61,0,0,1,26.95,24.34,92.78,92.78,0,0,1,15.46,30.71A85.18,85.18,0,0,1,545,598.62a79.69,79.69,0,0,1-34.05,56.65,85.2,85.2,0,0,1-30.71,13.1,93,93,0,0,1-34.37.77A98.64,98.64,0,0,1,411.69,656.78Z" transform="translate(-409.9 -300.15)"/></g><g id="Group_81" data-name="Group 81"><path id="Subtraction_3-4" data-name="Subtraction 3-4" class="cls-1" d="M590.1,314.05h0L482.26,500A107.48,107.48,0,0,1,590.1,314.05Z" transform="translate(-409.9 -300.15)"/><path id="Subtraction_1-2" data-name="Subtraction 1-2" class="cls-2" d="M586.74,339.81h0l-85.44,148a98.5,98.5,0,0,1-27.37-23.86,93,93,0,0,1-16-30.44,85.21,85.21,0,0,1-3.43-33.21,79.76,79.76,0,0,1,33.05-57.24A85.22,85.22,0,0,1,518,329.42a93,93,0,0,1,34.36-1.37A98.67,98.67,0,0,1,586.74,339.81Z" transform="translate(-409.9 -300.15)"/></g></svg>